<svg width="260" height="260" viewBox="0 0 319 477" fill="none" xmlns="http://www.w3.org/2000/svg">
<g clip-path="url(#clip0_0_1)">
<path fill-rule="evenodd" clip-rule="evenodd" d="M145.607 231.646C177.879 200.898 168.032 162.868 138.803 116.786C109.574 70.7039 50.7373 54.3094 39.7608 64.7674C28.7843 75.2253 26.3514 149.996 55.58 196.078C84.8085 242.16 113.334 262.394 145.607 231.646Z" fill="url(#paint0_linear_0_1)"/>
<path fill-rule="evenodd" clip-rule="evenodd" d="M173.511 235.902C197.387 273.544 229.306 259.78 268.814 222.138C308.323 184.496 324.705 112.389 316.585 99.5867C308.464 86.7839 246.755 87.4258 207.246 125.068C167.737 162.71 149.636 198.259 173.511 235.902Z" fill="url(#paint1_linear_0_1)"/>
<path fill-rule="evenodd" clip-rule="evenodd" d="M160.457 215.193C200.102 220.061 215.692 183.436 222.961 124.234C230.23 65.0314 200.265 2.45858 186.781 0.802998C173.298 -0.852587 127.998 52.4788 120.729 111.681C113.46 170.883 120.813 210.325 160.457 215.193Z" fill="url(#paint2_linear_0_1)"/>
<path fill-rule="evenodd" clip-rule="evenodd" d="M150.473 477C233.592 477 301 452.855 301 343.355C301 233.855 233.592 144 150.473 144C67.3546 144 0 233.855 0 343.355C0 452.855 67.3546 477 150.473 477Z" fill="url(#paint3_linear_0_1)"/>
<path d="M226.5 321C238.374 321 248 316.523 248 311C248 305.477 238.374 301 226.5 301C214.626 301 205 305.477 205 311C205 316.523 214.626 321 226.5 321Z" fill="#EAADCC"/>
<path d="M67.2813 314.925C79.0669 316.373 89.1667 313.102 89.8398 307.62C90.5128 302.139 81.5043 296.522 69.7187 295.075C57.9331 293.627 47.8333 296.898 47.1603 302.38C46.4872 307.861 55.4957 313.478 67.2813 314.925Z" fill="#EAADCC"/>
<path d="M164.248 307.459C157.777 312.718 150.303 314.863 141.826 313.894C133.348 312.925 127.065 309.407 122.975 303.338" stroke="black" stroke-width="6" stroke-linecap="round" stroke-linejoin="round"/>
<path fill-rule="evenodd" clip-rule="evenodd" d="M80.9825 255.418C86.9164 255.211 92.3724 257.428 96.3966 261.18C100.421 264.933 103.014 270.22 103.221 276.154C103.428 282.088 101.211 287.544 97.458 291.568C93.7053 295.592 88.4172 298.184 82.4832 298.392C76.5497 298.599 71.0942 296.382 67.0703 292.629C63.0466 288.876 60.4543 283.589 60.247 277.655C60.0398 271.721 62.257 266.265 66.0093 262.241C69.7616 258.217 75.0491 255.625 80.9825 255.418Z" fill="black"/>
<path fill-rule="evenodd" clip-rule="evenodd" d="M82.1115 273.389C81.9766 269.526 78.7338 266.503 74.8721 266.638C71.008 266.773 67.9851 270.015 68.12 273.878C68.2549 277.741 71.4966 280.764 75.3607 280.629C79.2223 280.493 82.2464 277.253 82.1115 273.389Z" fill="white"/>
<path fill-rule="evenodd" clip-rule="evenodd" d="M211.253 260.875C217.187 260.668 222.643 262.885 226.667 266.637C230.691 270.39 233.283 275.677 233.491 281.611C233.698 287.545 231.481 293.001 227.728 297.025C223.976 301.049 218.688 303.641 212.754 303.849C206.821 304.056 201.365 301.838 197.341 298.086C193.317 294.333 190.724 289.045 190.517 283.111C190.31 277.178 192.527 271.723 196.28 267.699C200.032 263.674 205.32 261.082 211.253 260.875Z" fill="black"/>
<path d="M100.223 276.259C100.579 286.471 92.5905 295.037 82.3785 295.393C72.1676 295.75 63.6018 287.762 63.2452 277.55C62.8886 267.339 70.8763 258.773 81.0872 258.416C91.2992 258.059 99.8661 266.047 100.223 276.259ZM106.219 276.049C105.747 262.526 94.4014 251.947 80.8778 252.42C67.3552 252.892 56.7767 264.236 57.2489 277.759C57.7211 291.283 69.0651 301.862 82.5879 301.39C96.1117 300.918 106.691 289.573 106.219 276.049Z" fill="white" stroke="white" stroke-width="3"/>
<path d="M230.492 281.716C230.849 291.928 222.861 300.494 212.649 300.85C202.439 301.207 193.872 293.219 193.515 283.007C193.158 272.796 201.147 264.23 211.358 263.873C221.57 263.516 230.136 271.504 230.492 281.716ZM236.489 281.506C236.017 267.983 224.672 257.404 211.149 257.877C197.626 258.349 187.046 269.693 187.519 283.216C187.991 296.74 199.336 307.319 212.859 306.847C226.383 306.375 236.961 295.03 236.489 281.506Z" fill="white" stroke="white" stroke-width="3"/>
<path fill-rule="evenodd" clip-rule="evenodd" d="M212.381 278.846C212.246 274.983 209.004 271.96 205.141 272.095C201.278 272.23 198.255 275.472 198.39 279.335C198.525 283.198 201.767 286.221 205.63 286.086C209.493 285.952 212.516 282.71 212.381 278.846Z" fill="white"/>
<path d="M36.5 353.5L110.5 430.5" stroke="#ECB732" stroke-width="11" stroke-linecap="round"/>
<path d="M100.5 362.5L53.5 412.5" stroke="#ECB732" stroke-width="11" stroke-linecap="round"/>
<path d="M263.5 353.5L189.5 430.5" stroke="#ECB732" stroke-width="11" stroke-linecap="round"/>
<path d="M199.5 362.5L246.5 412.5" stroke="#ECB732" stroke-width="11" stroke-linecap="round"/>
<path d="M180.5 183.5L131.5 232.5" stroke="#FFC73B" stroke-width="11" stroke-linecap="round"/>
<path d="M170.5 232.5L121.5 183.5" stroke="#FFC73B" stroke-width="11" stroke-linecap="round"/>
<g clip-path="url(#clip1_0_1)">
<path d="M251.005 337.555L313.516 359.911C319.682 362.116 322.725 369.368 320.315 376.108L288.886 463.987C286.477 470.724 279.524 474.402 273.359 472.196L210.848 449.84C204.683 447.635 201.639 440.383 204.049 433.644L235.478 345.764C237.888 339.027 244.84 335.35 251.005 337.555Z" fill="black"/>
<path d="M249.652 342.7C246.004 341.395 241.878 343.609 240.434 347.647L209.075 435.331C207.629 439.374 209.417 443.7 213.065 445.004L274.712 467.052C278.36 468.356 282.487 466.143 283.93 462.105L315.29 374.42C316.735 370.378 314.947 366.052 311.299 364.747L249.652 342.7Z" fill="#CC4717"/>
<path d="M259.23 340.497L305.292 356.97C309.109 358.335 311.204 362.237 309.972 365.68L301.049 390.632C299.817 394.076 295.724 395.764 291.906 394.398L245.844 377.925C242.026 376.56 239.932 372.658 241.163 369.215L250.087 344.263C251.318 340.819 255.412 339.131 259.23 340.497Z" fill="black"/>
<path d="M258.687 343.117C257.432 342.668 256.073 343.263 255.651 344.443L246.472 370.109C246.05 371.289 246.723 372.611 247.978 373.059L293.341 389.283C294.596 389.732 295.955 389.137 296.377 387.957L305.556 362.291C305.978 361.111 305.305 359.789 304.05 359.34L258.687 343.117Z" fill="#FFB223"/>
<path d="M297.05 362.466C297.705 362.7 298.308 363.061 298.824 363.529C299.34 363.996 299.758 364.56 300.056 365.189C300.354 365.818 300.525 366.5 300.559 367.195C300.593 367.89 300.49 368.585 300.256 369.241L295.794 381.717C295.321 383.041 294.341 384.122 293.07 384.723C291.8 385.324 290.342 385.396 289.019 384.923C287.695 384.449 286.614 383.47 286.013 382.199C285.411 380.928 285.34 379.471 285.813 378.147L290.275 365.671C290.509 365.016 290.87 364.413 291.338 363.897C291.805 363.382 292.369 362.963 292.999 362.665C293.628 362.368 294.309 362.197 295.004 362.163C295.7 362.128 296.395 362.231 297.05 362.466ZM259.804 340.702C262.561 341.688 264.128 344.348 263.306 346.646L252.896 375.755C252.075 378.051 249.175 379.116 246.418 378.13C243.661 377.144 242.093 374.484 242.915 372.186L253.326 343.077C254.147 340.781 257.046 339.716 259.804 340.702ZM237.359 386.148L293.252 406.137C297.11 407.517 299.04 411.987 297.561 416.122L279.714 466.026C278.235 470.161 273.908 472.393 270.05 471.013L214.157 451.024C210.299 449.644 208.369 445.174 209.847 441.039L227.695 391.135C229.174 387 233.501 384.768 237.359 386.148Z" fill="black"/>
<path d="M235.881 391.248C234.608 390.793 233.178 391.542 232.686 392.92L214.838 442.824C214.345 444.202 214.976 445.688 216.249 446.143L271.528 465.913C272.8 466.368 274.231 465.619 274.723 464.241L292.571 414.337C293.064 412.959 292.433 411.473 291.16 411.018L235.881 391.248Z" fill="#0F7762"/>
<path d="M220.01 436.231L274.905 455.863C278.232 457.053 279.301 459.312 278.111 462.639L277.219 465.134C276.029 468.461 273.77 469.529 270.443 468.339L215.548 448.707C212.221 447.517 211.153 445.259 212.343 441.932L213.235 439.437C214.425 436.11 216.683 435.041 220.01 436.231Z" fill="black"/>
<path d="M228.033 433.471L270.452 448.642C271.114 448.878 271.842 448.842 272.477 448.542C273.113 448.241 273.602 447.701 273.839 447.039C274.076 446.377 274.04 445.649 273.739 445.013C273.439 444.378 272.898 443.888 272.237 443.651L229.818 428.481C229.156 428.244 228.428 428.281 227.792 428.581C227.157 428.882 226.667 429.422 226.431 430.084C226.194 430.746 226.23 431.474 226.531 432.109C226.831 432.745 227.371 433.235 228.033 433.471ZM231.603 423.49L274.021 438.661C274.683 438.897 275.412 438.861 276.047 438.561C276.682 438.26 277.172 437.72 277.408 437.058C277.645 436.396 277.609 435.668 277.309 435.032C277.008 434.397 276.468 433.907 275.806 433.671L233.387 418.5C232.726 418.264 231.997 418.3 231.362 418.6C230.727 418.901 230.237 419.441 230 420.103C229.764 420.765 229.8 421.493 230.1 422.129C230.401 422.764 230.941 423.254 231.603 423.49ZM235.172 413.51L277.591 428.68C278.253 428.917 278.981 428.881 279.617 428.58C280.252 428.28 280.742 427.739 280.979 427.077C281.215 426.415 281.179 425.687 280.879 425.051C280.578 424.416 280.038 423.926 279.376 423.69L236.957 408.519C236.295 408.282 235.566 408.318 234.931 408.619C234.296 408.92 233.806 409.46 233.569 410.122C233.333 410.784 233.369 411.512 233.669 412.148C233.97 412.783 234.51 413.273 235.172 413.51ZM238.742 403.529L281.161 418.699C281.822 418.936 282.551 418.9 283.186 418.599C283.821 418.298 284.311 417.758 284.548 417.096C284.784 416.434 284.748 415.706 284.448 415.071C284.147 414.435 283.607 413.946 282.945 413.709L240.526 398.538C239.865 398.302 239.136 398.338 238.501 398.638C237.866 398.939 237.376 399.48 237.139 400.141C236.903 400.803 236.939 401.532 237.239 402.167C237.54 402.802 238.08 403.292 238.742 403.529Z" fill="black"/>
</g>
</g>
<defs>
<linearGradient id="paint0_linear_0_1" x1="35.5202" y1="68.039" x2="52.1009" y2="148.505" gradientUnits="userSpaceOnUse">
<stop stop-color="#52CE63"/>
<stop offset="1" stop-color="#51A256"/>
</linearGradient>
<linearGradient id="paint1_linear_0_1" x1="326.844" y1="112.664" x2="246.369" y2="129.226" gradientUnits="userSpaceOnUse">
<stop stop-color="#52CE63"/>
<stop offset="1" stop-color="#51A256"/>
</linearGradient>
<linearGradient id="paint2_linear_0_1" x1="186.238" y1="0.736293" x2="170.757" y2="126.822" gradientUnits="userSpaceOnUse">
<stop stop-color="#8AE99C"/>
<stop offset="1" stop-color="#52CE63"/>
</linearGradient>
<linearGradient id="paint3_linear_0_1" x1="154.647" y1="202.184" x2="129.659" y2="476.587" gradientUnits="userSpaceOnUse">
<stop stop-color="#FFE56C"/>
<stop offset="1" stop-color="#FFC63A"/>
</linearGradient>
<clipPath id="clip0_0_1">
<rect width="319" height="477" fill="white"/>
</clipPath>
<clipPath id="clip1_0_1">
<rect width="159" height="159" fill="white" transform="translate(214.543 302) rotate(19.6789)"/>
</clipPath>
</defs>
</svg>
